<svg width="140" height="40" viewBox="0 0 140 40" fill="none" xmlns="http://www.w3.org/2000/svg">
<path d="M50.2496 9.45355V31.2375H60.308C64.9975 31.2375 67.4892 28.8421 67.5159 25.0529C67.5159 22.6303 66.3864 20.7862 64.1733 19.7806V19.7341C65.8446 18.6781 66.5772 17.358 66.5772 15.3237C66.5772 12.2333 64.5282 9.45355 60.0752 9.45355H50.2496ZM71.0531 9.45355V31.2375H73.5715V22.5177L73.312 22.2537H78.3984C81.2259 22.2537 82.8514 23.2864 83.8855 25.5149L86.5489 31.2414H89.3725L86.1215 24.4356C85.4156 22.9021 84.3319 21.9431 83.3169 21.5122V21.4617C85.6713 20.8366 87.6059 18.7285 87.6059 15.8789C87.6059 11.5889 84.3319 9.45743 80.4208 9.45743L71.0531 9.45355ZM91.994 9.45355V31.2375H94.5162V9.45355H91.994ZM106.879 9.45355L97.4543 31.2375H100.209L102.472 25.9885L102.331 25.7245H114.06L113.919 25.9885L116.182 31.2375H118.937L109.539 9.45355H106.879ZM121.677 9.45355V31.2375H124.195V22.5177L123.936 22.2537H129.026C131.853 22.2537 133.479 23.2864 134.513 25.5149L137.172 31.2414H140L136.749 24.4356C136.043 22.9021 134.959 21.9431 133.944 21.5122V21.4617C136.299 20.8366 138.233 18.7285 138.233 15.8789C138.233 11.5889 134.959 9.45743 131.048 9.45743L121.677 9.45355ZM52.5353 11.8761H59.8119C62.544 11.8761 63.9825 13.002 63.9825 15.3004C63.9825 17.2416 62.8721 18.8023 59.8119 18.8023H52.5353L52.7947 18.5383V12.1401L52.5353 11.8761ZM73.312 11.8761H80.4475C83.0842 11.8761 85.0417 12.9787 85.0646 15.8517C85.0646 18.1539 83.2521 19.8078 80.1651 19.8078H73.3082L73.5677 19.5438V12.1401C73.5715 12.1401 73.312 11.8761 73.312 11.8761ZM123.959 11.8761H131.094C133.708 11.8761 135.688 12.9787 135.688 15.8517C135.688 18.1539 133.899 19.8078 130.812 19.8078H123.955L124.214 19.5438V12.1401C124.218 12.1401 123.959 11.8761 123.959 11.8761ZM108.199 12.113H108.249L108.882 14.2949L112.652 23.0418L112.912 23.3058H103.514L103.773 23.0418L107.543 14.2949L108.199 12.113ZM52.5124 21.2249H60.2889C63.4445 21.2249 64.9059 22.7079 64.9059 25.0335C64.9059 27.4561 63.5857 28.7955 60.3118 28.7955H52.5124L52.7718 28.5315V21.485L52.5124 21.2249Z" fill="#2E2E2E"/>
<path d="M10.8571 0.000396729C9.23419 0.000396729 7.89624 1.3617 7.89624 3.01295V6.84244H15.19V3.01295C15.19 1.3617 13.8683 0.000396729 12.2454 0.000396729H10.8571ZM27.0846 0.000396729C25.4617 0.000396729 24.1237 1.3617 24.1237 3.01295V23.3532H31.4175V3.01295C31.4175 1.3617 30.0958 0.000396729 28.4729 0.000396729H27.0846ZM7.89624 16.6467V36.9869C7.89624 38.6382 9.21795 39.9995 10.8571 39.9995H12.2454C13.8683 39.9995 15.2062 38.6382 15.2062 36.9869V16.6467H7.89624ZM24.1229 33.1574V36.9869C24.1229 38.6382 25.4617 39.9995 27.0838 39.9995H28.4721C30.095 39.9995 31.4329 38.6382 31.4329 36.9869V33.1574C31.4338 33.1574 24.1229 33.1574 24.1229 33.1574Z" fill="#74B816"/>
<path d="M2.96092 8.0336C1.33801 8.0336 6.10352e-05 9.37838 6.10352e-05 11.0461V12.4587C6.10352e-05 14.1099 1.32177 15.4712 2.96092 15.4712H22.9522V8.0336H2.96092ZM32.5882 8.0336V15.472H36.352C37.9749 15.472 39.3129 14.1273 39.3129 12.4595V11.047C39.3129 9.37921 37.9749 8.03443 36.352 8.03443H32.5882V8.0336ZM2.96092 24.5444C1.33801 24.5444 6.10352e-05 25.8892 6.10352e-05 27.5569V28.9694C6.10352e-05 30.6207 1.32177 31.982 2.96092 31.982H6.72472V24.5444H2.96092ZM16.3607 24.5444V31.9828H36.352C37.9749 31.9828 39.3129 30.6207 39.3129 28.9703V27.5578C39.3129 25.89 37.9749 24.5452 36.352 24.5452L16.3607 24.5444Z" fill="#82C91E"/>
</svg>
